<?xml version="1.0" standalone="no"?>
<!DOCTYPE svg PUBLIC "-//W3C//DTD SVG 20010904//EN"
 "http://www.w3.org/TR/2001/REC-SVG-20010904/DTD/svg10.dtd">
<svg version="1.0" xmlns="http://www.w3.org/2000/svg"
 width="180.000000pt" height="180.000000pt" viewBox="0 0 180.000000 180.000000"
 preserveAspectRatio="xMidYMid meet">
<metadata>
Created by potrace 1.10, written by Peter Selinger 2001-2011
</metadata>
<g transform="translate(0.000000,180.000000) scale(0.100000,-0.100000)"
fill="#000000" stroke="none">
<path d="M803 1590 c-140 -74 -227 -189 -289 -381 -24 -73 -83 -215 -129 -310
l-17 -36 -77 5 c-63 4 -86 1 -123 -16 -83 -36 -128 -117 -128 -233 0 -114 58
-169 177 -169 l62 0 11 -39 c7 -27 25 -53 55 -79 82 -72 91 -74 339 -76 253
-1 282 4 449 79 54 25 103 45 108 45 5 0 23 -30 40 -68 17 -37 37 -78 43 -92
18 -39 50 -37 81 4 27 35 85 184 85 219 0 23 26 33 45 17 24 -20 118 -8 158
20 50 34 69 73 74 149 3 52 0 73 -15 101 -30 56 -92 77 -170 59 -54 -12 -57
-9 -66 71 -4 34 -13 64 -22 71 -11 9 -50 13 -118 14 -101 0 -104 -1 -188 -42
-47 -24 -93 -43 -101 -43 -8 0 -22 -11 -31 -24 -14 -23 -23 -25 -113 -29 -54
-3 -123 -9 -153 -15 -30 -5 -56 -9 -57 -8 -2 1 -8 37 -14 80 -11 80 2 205 34
331 l13 50 91 17 c50 9 102 22 115 29 13 7 37 14 55 15 53 4 73 20 73 59 0 24
-6 39 -20 47 -11 7 -20 24 -20 38 0 52 -79 143 -139 160 -49 13 -58 12 -118
-20z m97 -5 c10 -12 15 -13 21 -4 11 18 32 5 77 -49 33 -39 39 -51 27 -56 -8
-3 -14 -16 -13 -30 1 -13 6 -22 10 -20 5 3 6 9 3 14 -3 4 2 10 10 14 8 3 15 0
15 -6 0 -18 -50 -98 -61 -98 -5 0 -2 11 7 25 16 24 15 28 -19 100 -20 41 -41
75 -47 75 -9 0 26 -72 53 -107 7 -9 4 -13 -10 -13 -12 0 -19 -7 -19 -19 0 -15
4 -17 17 -11 9 5 19 7 22 3 9 -8 -12 -45 -22 -39 -11 7 -43 -29 -34 -37 3 -4
-2 -7 -11 -7 -17 0 -17 1 -1 26 16 25 15 29 -12 105 -15 43 -31 79 -35 79 -11
0 -11 -4 17 -66 30 -69 31 -77 4 -69 -14 5 -19 3 -15 -3 3 -6 0 -13 -6 -15 -7
-3 -1 -6 15 -6 15 -1 27 -4 27 -8 0 -12 -16 -35 -24 -34 -15 1 -35 -12 -30
-20 3 -5 -2 -9 -10 -9 -8 0 -17 4 -21 10 -3 5 -12 7 -20 3 -21 -7 -46 16 -44
41 2 37 0 43 -28 55 -24 11 -25 11 -12 -5 13 -16 11 -17 -21 -11 l-35 6 30
-14 c17 -8 36 -14 43 -15 21 0 13 -36 -14 -63 l-26 -26 29 3 c15 2 28 5 28 6
0 1 30 3 66 5 43 1 81 9 108 22 23 11 44 17 46 12 11 -16 -54 -38 -172 -59
-130 -22 -149 -23 -118 -10 16 7 17 9 3 9 -9 1 -18 4 -20 9 -5 12 -69 54 -74
49 -5 -4 16 -23 62 -55 18 -13 18 -13 0 -7 -16 5 -17 3 -6 -10 7 -8 25 -15 41
-15 15 0 30 -4 33 -8 2 -4 -6 -57 -19 -118 -39 -187 -39 -186 -94 -216 -54
-29 -102 -91 -126 -159 -20 -57 -18 -60 9 -16 27 44 85 107 99 107 5 0 -1 -12
-12 -26 -28 -35 -27 -53 2 -26 12 11 34 25 49 31 24 9 27 7 36 -18 10 -28 52
-47 69 -31 4 5 26 11 48 14 22 3 59 8 83 12 35 5 49 2 77 -17 64 -44 80 -119
41 -201 -14 -30 -26 -64 -26 -76 0 -24 -30 -56 -73 -79 -16 -8 -27 -16 -25
-18 8 -8 84 18 143 48 l60 32 -39 3 c-34 3 -37 6 -32 25 3 12 20 93 38 180 26
128 35 157 49 157 9 0 38 9 64 21 74 33 158 12 258 -64 26 -20 47 -34 47 -31
0 18 -26 47 -58 63 -20 10 -46 29 -57 41 -19 21 -19 22 0 36 11 8 43 14 75 14
l57 0 6 -72 c4 -50 11 -74 22 -80 11 -7 13 -17 9 -36 l-7 -27 24 21 c55 49
112 57 166 24 56 -34 65 -120 21 -201 -26 -47 -65 -69 -123 -69 -38 0 -52 5
-76 29 -26 26 -29 37 -30 93 -1 60 -2 59 -14 -40 -8 -56 -21 -128 -30 -160
-19 -65 -75 -192 -85 -192 -11 0 -40 69 -40 95 l0 24 37 -21 c35 -21 36 -21
29 -3 -26 61 -38 104 -39 137 -2 36 -4 38 -36 38 -28 0 -33 3 -28 19 5 22 -25
35 -42 18 -17 -17 -13 -27 9 -27 27 0 35 -23 18 -56 -9 -18 -32 -34 -73 -51
-52 -22 -87 -27 -275 -40 -118 -7 -228 -18 -245 -23 -20 -6 1 -7 65 -3 93 5
180 -7 180 -26 0 -18 -79 -22 -269 -16 -179 7 -199 9 -236 30 -61 35 -92 74
-98 123 l-5 43 31 -3 c36 -3 36 -5 17 82 l-14 65 -11 -60 c-12 -69 -18 -72
-127 -74 -57 -1 -71 2 -97 24 -38 33 -55 84 -48 146 12 98 69 166 158 190 43
12 86 7 139 -15 12 -5 29 27 77 136 34 79 79 190 99 248 20 58 43 118 51 135
51 100 207 244 244 225 25 -14 28 -13 22 10 -4 15 0 20 15 20 11 0 25 -7 32
-15z m164 -224 c-1 -23 0 -23 14 -5 9 12 13 14 10 4 -6 -20 -55 -43 -74 -36
-13 5 -13 10 3 36 21 35 48 36 47 1z m-374 -500 c0 -14 -5 -18 -20 -14 -21 5
-25 15 -13 26 13 14 33 6 33 -12z m624 -477 c7 -19 -2 -37 -15 -29 -12 8 -12
45 0 45 5 0 12 -7 15 -16z"/>
<path d="M810 1494 c0 -7 6 -27 14 -45 12 -28 12 -35 0 -47 -17 -16 -8 -36 12
-28 22 8 16 -14 -8 -34 -20 -16 -21 -18 -4 -16 32 4 40 33 26 93 -13 50 -39
102 -40 77z"/>
<path d="M616 1177 c-35 -45 -65 -116 -93 -217 -35 -128 -27 -138 16 -20 20
58 53 142 73 188 20 45 34 82 32 82 -1 0 -14 -15 -28 -33z"/>
<path d="M555 1157 c-8 -13 -17 -39 -21 -58 -5 -33 -5 -33 16 10 11 25 26 51
32 58 7 9 7 13 -1 13 -6 0 -17 -10 -26 -23z"/>
<path d="M661 1033 c-18 -35 -20 -36 -21 -13 0 22 -3 21 -25 -17 -14 -23 -33
-59 -41 -79 l-15 -36 34 26 c19 14 39 26 45 26 6 0 16 19 22 41 6 23 16 52 20
65 14 36 3 29 -19 -13z"/>
<path d="M221 820 c-125 -31 -187 -227 -94 -300 26 -20 88 -26 150 -14 26 5
30 11 46 82 9 42 17 80 17 85 0 4 -27 7 -60 7 -33 0 -60 -3 -60 -7 0 -5 -3
-17 -6 -29 -5 -18 -2 -20 26 -16 30 4 31 3 25 -24 -12 -51 -14 -54 -42 -54
-49 0 -73 25 -73 76 0 52 19 94 56 123 28 22 83 28 113 11 15 -7 21 -4 30 17
12 27 3 42 -25 43 -6 0 -24 2 -40 4 -16 3 -44 1 -63 -4z"/>
<path d="M1080 763 c-7 -32 -22 -104 -35 -160 l-22 -103 73 0 c82 0 113 9 143
41 29 31 29 93 -1 113 l-21 15 25 12 c26 11 48 46 48 75 0 8 -11 26 -25 39
-21 22 -33 25 -99 25 l-75 0 -11 -57z m134 -16 c9 -15 7 -22 -13 -38 -13 -10
-34 -19 -48 -19 -21 0 -24 4 -19 23 3 12 6 30 6 40 0 14 7 18 31 15 18 -2 37
-11 43 -21z m-26 -119 c28 -28 3 -64 -51 -74 l-38 -6 7 38 c3 22 9 42 11 47 7
11 58 8 71 -5z"/>
<path d="M223 738 c-43 -21 -71 -126 -41 -156 20 -20 58 -15 58 8 0 15 -7 20
-26 20 -24 0 -26 3 -20 31 3 17 6 38 6 45 0 11 18 14 75 14 58 0 75 3 75 14 0
15 -50 36 -84 35 -12 0 -31 -5 -43 -11z"/>
<path d="M390 743 c0 -12 29 -195 35 -221 7 -28 -47 -87 -70 -78 -11 4 -15 -2
-15 -24 0 -35 22 -39 75 -14 27 12 48 43 119 174 47 87 86 161 86 164 0 3 -15
6 -33 6 -32 0 -35 -3 -69 -77 -20 -43 -38 -85 -41 -93 -2 -8 -7 17 -11 55 -4
39 -8 79 -9 90 -1 15 -11 21 -34 23 -18 2 -33 0 -33 -5z"/>
<path d="M641 648 c-12 -57 -24 -113 -27 -125 -6 -21 -3 -23 27 -23 l34 0 18
81 c17 75 42 119 67 119 26 0 23 -52 -7 -177 -5 -21 -1 -23 29 -23 l35 0 12
68 c13 75 42 132 66 132 26 0 29 -28 11 -109 -20 -97 -21 -91 14 -91 23 0 31
5 35 23 33 142 35 156 24 184 -19 51 -60 57 -108 17 -24 -20 -31 -22 -31 -10
0 18 -30 36 -60 36 -11 0 -32 -11 -46 -25 -14 -14 -26 -25 -28 -25 -2 0 -1 11
2 25 4 21 1 25 -20 25 -23 0 -26 -6 -47 -102z"/>
<path d="M1350 744 c0 -9 -40 -207 -46 -226 -4 -15 1 -18 29 -18 32 0 35 3 41
38 17 105 45 152 90 152 19 0 25 6 28 30 4 26 1 30 -19 30 -13 0 -35 -11 -49
-25 -14 -14 -26 -25 -28 -25 -2 0 -1 11 2 25 4 22 1 25 -22 25 -14 0 -26 -3
-26 -6z"/>
<path d="M1590 743 c-56 -22 -98 -104 -85 -169 17 -93 157 -99 200 -8 21 44
20 126 -3 154 -18 22 -82 35 -112 23z m60 -58 c17 -20 7 -91 -16 -116 -10 -11
-27 -19 -38 -17 -31 4 -35 84 -6 121 24 30 42 34 60 12z"/>
<path d="M1606 658 c-20 -29 -21 -88 -2 -88 14 0 36 49 36 81 0 28 -17 32 -34
7z"/>
<path d="M370 632 c0 -37 23 -132 32 -132 5 0 7 8 4 18 -2 9 -10 43 -16 75
-11 57 -20 74 -20 39z"/>
<path d="M1275 571 c-9 -30 6 -50 17 -21 5 14 5 27 -1 33 -5 5 -12 1 -16 -12z"/>
<path d="M581 540 c-13 -11 -32 -20 -42 -20 -10 0 -23 -9 -29 -20 -6 -11 -8
-20 -5 -20 10 0 80 47 94 64 18 21 11 20 -18 -4z"/>
<path d="M700 465 c-46 -18 -9 -18 45 0 31 10 34 13 15 13 -14 0 -41 -6 -60
-13z"/>
<path d="M800 454 c-36 -13 -74 -24 -85 -24 -11 0 -27 -5 -35 -11 -24 -17 123
-1 194 22 90 28 101 39 41 38 -27 -1 -79 -12 -115 -25z"/>
</g>
</svg>
